<svg xmlns="http://www.w3.org/2000/svg" width="920" height="560" viewBox="0 0 920 560">
<rect width="100%" height="100%" fill="#ffffff"/>
<text x="44.00" y="38.00" font-size="19" fill="#222" text-anchor="start" font-family="Arial, Helvetica, sans-serif" font-weight="700">Simulated Settlement Motif Shares</text>
<text x="44.00" y="61.00" font-size="11" fill="#4b5563" text-anchor="start" font-family="Arial, Helvetica, sans-serif" font-weight="normal">Median route shares by coupon and principal ratio in the final settlement-capacity grid.</text>
<line x1="152" y1="424" x2="646" y2="424" stroke="#222" stroke-width="1"/>
<line x1="152" y1="134" x2="152" y2="424" stroke="#222" stroke-width="1"/>
<line x1="152.00" y1="424" x2="152.00" y2="429" stroke="#222"/>
<text x="152.00" y="447.00" font-size="10" fill="#222" text-anchor="middle" font-family="Arial, Helvetica, sans-serif" font-weight="normal">0.05</text>
<line x1="152.00" y1="134" x2="152.00" y2="424" stroke="#e5e7eb" stroke-width="0.8"/>
<line x1="162.83" y1="424" x2="162.83" y2="429" stroke="#222"/>
<text x="162.83" y="460.00" font-size="10" fill="#222" text-anchor="middle" font-family="Arial, Helvetica, sans-serif" font-weight="normal">0.1</text>
<line x1="162.83" y1="134" x2="162.83" y2="424" stroke="#e5e7eb" stroke-width="0.8"/>
<line x1="195.80" y1="424" x2="195.80" y2="429" stroke="#222"/>
<text x="195.80" y="447.00" font-size="10" fill="#222" text-anchor="middle" font-family="Arial, Helvetica, sans-serif" font-weight="normal">0.25</text>
<line x1="195.80" y1="134" x2="195.80" y2="424" stroke="#e5e7eb" stroke-width="0.8"/>
<line x1="252.42" y1="424" x2="252.42" y2="429" stroke="#222"/>
<text x="252.42" y="460.00" font-size="10" fill="#222" text-anchor="middle" font-family="Arial, Helvetica, sans-serif" font-weight="normal">0.5</text>
<line x1="252.42" y1="134" x2="252.42" y2="424" stroke="#e5e7eb" stroke-width="0.8"/>
<line x1="311.25" y1="424" x2="311.25" y2="429" stroke="#222"/>
<text x="311.25" y="447.00" font-size="10" fill="#222" text-anchor="middle" font-family="Arial, Helvetica, sans-serif" font-weight="normal">0.75</text>
<line x1="311.25" y1="134" x2="311.25" y2="424" stroke="#e5e7eb" stroke-width="0.8"/>
<line x1="372.49" y1="424" x2="372.49" y2="429" stroke="#222"/>
<text x="372.49" y="460.00" font-size="10" fill="#222" text-anchor="middle" font-family="Arial, Helvetica, sans-serif" font-weight="normal">1</text>
<line x1="372.49" y1="134" x2="372.49" y2="424" stroke="#e5e7eb" stroke-width="0.8"/>
<line x1="503.02" y1="424" x2="503.02" y2="429" stroke="#222"/>
<text x="503.02" y="447.00" font-size="10" fill="#222" text-anchor="middle" font-family="Arial, Helvetica, sans-serif" font-weight="normal">1.5</text>
<line x1="503.02" y1="134" x2="503.02" y2="424" stroke="#e5e7eb" stroke-width="0.8"/>
<line x1="646.00" y1="424" x2="646.00" y2="429" stroke="#222"/>
<text x="646.00" y="460.00" font-size="10" fill="#222" text-anchor="middle" font-family="Arial, Helvetica, sans-serif" font-weight="normal">2</text>
<line x1="646.00" y1="134" x2="646.00" y2="424" stroke="#e5e7eb" stroke-width="0.8"/>
<line x1="147" y1="424.00" x2="152" y2="424.00" stroke="#222"/>
<text x="144.00" y="427.50" font-size="10" fill="#222" text-anchor="end" font-family="Arial, Helvetica, sans-serif" font-weight="normal">0.4</text>
<line x1="152" y1="424.00" x2="646" y2="424.00" stroke="#e5e7eb" stroke-width="0.8"/>
<line x1="147" y1="327.33" x2="152" y2="327.33" stroke="#222"/>
<text x="144.00" y="330.83" font-size="10" fill="#222" text-anchor="end" font-family="Arial, Helvetica, sans-serif" font-weight="normal">0.45</text>
<line x1="152" y1="327.33" x2="646" y2="327.33" stroke="#e5e7eb" stroke-width="0.8"/>
<line x1="147" y1="230.67" x2="152" y2="230.67" stroke="#222"/>
<text x="144.00" y="234.17" font-size="10" fill="#222" text-anchor="end" font-family="Arial, Helvetica, sans-serif" font-weight="normal">0.5</text>
<line x1="152" y1="230.67" x2="646" y2="230.67" stroke="#e5e7eb" stroke-width="0.8"/>
<line x1="147" y1="134.00" x2="152" y2="134.00" stroke="#222"/>
<text x="144.00" y="137.50" font-size="10" fill="#222" text-anchor="end" font-family="Arial, Helvetica, sans-serif" font-weight="normal">0.55</text>
<line x1="152" y1="134.00" x2="646" y2="134.00" stroke="#e5e7eb" stroke-width="0.8"/>
<text x="399.00" y="474.00" font-size="12" fill="#222" text-anchor="middle" font-family="Arial, Helvetica, sans-serif" font-weight="normal">Gross principal ratio (principal / certified backing capacity)</text>
<polyline points="152.00,287.27 162.83,287.15 195.80,288.70 252.42,293.42 311.25,297.15 372.49,304.65 503.02,323.25 646.00,340.03" fill="none" stroke="#2c7fb8" stroke-width="2.4" stroke-linejoin="round" stroke-linecap="round"/>
<polyline points="152.00,276.89 162.83,275.97 195.80,274.96 252.42,269.30 311.25,266.02 372.49,258.70 503.02,240.24 646.00,224.52" fill="none" stroke="#2c7fb8" stroke-width="2.1" stroke-linejoin="round" stroke-linecap="round" stroke-dasharray="6 5"/>
<circle cx="152.00" cy="287.27" r="4.2" fill="#2c7fb8" stroke="white" stroke-width="1.2"/>
<circle cx="162.83" cy="287.15" r="4.2" fill="#2c7fb8" stroke="white" stroke-width="1.2"/>
<circle cx="195.80" cy="288.70" r="4.2" fill="#2c7fb8" stroke="white" stroke-width="1.2"/>
<circle cx="252.42" cy="293.42" r="4.2" fill="#2c7fb8" stroke="white" stroke-width="1.2"/>
<circle cx="311.25" cy="297.15" r="4.2" fill="#2c7fb8" stroke="white" stroke-width="1.2"/>
<circle cx="372.49" cy="304.65" r="4.2" fill="#2c7fb8" stroke="white" stroke-width="1.2"/>
<circle cx="503.02" cy="323.25" r="4.2" fill="#2c7fb8" stroke="white" stroke-width="1.2"/>
<circle cx="646.00" cy="340.03" r="4.2" fill="#2c7fb8" stroke="white" stroke-width="1.2"/>
<rect x="147.90" y="272.79" width="8.2" height="8.2" fill="#2c7fb8" stroke="white" stroke-width="1.2"/>
<rect x="158.73" y="271.87" width="8.2" height="8.2" fill="#2c7fb8" stroke="white" stroke-width="1.2"/>
<rect x="191.70" y="270.86" width="8.2" height="8.2" fill="#2c7fb8" stroke="white" stroke-width="1.2"/>
<rect x="248.32" y="265.20" width="8.2" height="8.2" fill="#2c7fb8" stroke="white" stroke-width="1.2"/>
<rect x="307.15" y="261.92" width="8.2" height="8.2" fill="#2c7fb8" stroke="white" stroke-width="1.2"/>
<rect x="368.39" y="254.60" width="8.2" height="8.2" fill="#2c7fb8" stroke="white" stroke-width="1.2"/>
<rect x="498.92" y="236.14" width="8.2" height="8.2" fill="#2c7fb8" stroke="white" stroke-width="1.2"/>
<rect x="641.90" y="220.42" width="8.2" height="8.2" fill="#2c7fb8" stroke="white" stroke-width="1.2"/>
<polyline points="152.00,285.70 162.83,288.09 195.80,290.57 252.42,293.49 311.25,301.82 372.49,310.53 503.02,330.58 646.00,350.12" fill="none" stroke="#41ab5d" stroke-width="2.4" stroke-linejoin="round" stroke-linecap="round"/>
<polyline points="152.00,277.73 162.83,275.54 195.80,272.85 252.42,269.40 311.25,261.57 372.49,253.14 503.02,233.73 646.00,214.77" fill="none" stroke="#41ab5d" stroke-width="2.1" stroke-linejoin="round" stroke-linecap="round" stroke-dasharray="6 5"/>
<circle cx="152.00" cy="285.70" r="4.2" fill="#41ab5d" stroke="white" stroke-width="1.2"/>
<circle cx="162.83" cy="288.09" r="4.2" fill="#41ab5d" stroke="white" stroke-width="1.2"/>
<circle cx="195.80" cy="290.57" r="4.2" fill="#41ab5d" stroke="white" stroke-width="1.2"/>
<circle cx="252.42" cy="293.49" r="4.2" fill="#41ab5d" stroke="white" stroke-width="1.2"/>
<circle cx="311.25" cy="301.82" r="4.2" fill="#41ab5d" stroke="white" stroke-width="1.2"/>
<circle cx="372.49" cy="310.53" r="4.2" fill="#41ab5d" stroke="white" stroke-width="1.2"/>
<circle cx="503.02" cy="330.58" r="4.2" fill="#41ab5d" stroke="white" stroke-width="1.2"/>
<circle cx="646.00" cy="350.12" r="4.2" fill="#41ab5d" stroke="white" stroke-width="1.2"/>
<rect x="147.90" y="273.63" width="8.2" height="8.2" fill="#41ab5d" stroke="white" stroke-width="1.2"/>
<rect x="158.73" y="271.44" width="8.2" height="8.2" fill="#41ab5d" stroke="white" stroke-width="1.2"/>
<rect x="191.70" y="268.75" width="8.2" height="8.2" fill="#41ab5d" stroke="white" stroke-width="1.2"/>
<rect x="248.32" y="265.30" width="8.2" height="8.2" fill="#41ab5d" stroke="white" stroke-width="1.2"/>
<rect x="307.15" y="257.47" width="8.2" height="8.2" fill="#41ab5d" stroke="white" stroke-width="1.2"/>
<rect x="368.39" y="249.04" width="8.2" height="8.2" fill="#41ab5d" stroke="white" stroke-width="1.2"/>
<rect x="498.92" y="229.63" width="8.2" height="8.2" fill="#41ab5d" stroke="white" stroke-width="1.2"/>
<rect x="641.90" y="210.67" width="8.2" height="8.2" fill="#41ab5d" stroke="white" stroke-width="1.2"/>
<polyline points="152.00,287.19 162.83,288.84 195.80,290.05 252.42,296.13 311.25,306.97 372.49,316.66 503.02,338.70 646.00,358.30" fill="none" stroke="#41ab5d" stroke-width="2.4" stroke-linejoin="round" stroke-linecap="round"/>
<polyline points="152.00,275.59 162.83,273.70 195.80,273.81 252.42,267.53 311.25,256.29 372.49,246.84 503.02,225.90 646.00,206.86" fill="none" stroke="#41ab5d" stroke-width="2.1" stroke-linejoin="round" stroke-linecap="round" stroke-dasharray="6 5"/>
<circle cx="152.00" cy="287.19" r="4.2" fill="#41ab5d" stroke="white" stroke-width="1.2"/>
<circle cx="162.83" cy="288.84" r="4.2" fill="#41ab5d" stroke="white" stroke-width="1.2"/>
<circle cx="195.80" cy="290.05" r="4.2" fill="#41ab5d" stroke="white" stroke-width="1.2"/>
<circle cx="252.42" cy="296.13" r="4.2" fill="#41ab5d" stroke="white" stroke-width="1.2"/>
<circle cx="311.25" cy="306.97" r="4.2" fill="#41ab5d" stroke="white" stroke-width="1.2"/>
<circle cx="372.49" cy="316.66" r="4.2" fill="#41ab5d" stroke="white" stroke-width="1.2"/>
<circle cx="503.02" cy="338.70" r="4.2" fill="#41ab5d" stroke="white" stroke-width="1.2"/>
<circle cx="646.00" cy="358.30" r="4.2" fill="#41ab5d" stroke="white" stroke-width="1.2"/>
<rect x="147.90" y="271.49" width="8.2" height="8.2" fill="#41ab5d" stroke="white" stroke-width="1.2"/>
<rect x="158.73" y="269.60" width="8.2" height="8.2" fill="#41ab5d" stroke="white" stroke-width="1.2"/>
<rect x="191.70" y="269.71" width="8.2" height="8.2" fill="#41ab5d" stroke="white" stroke-width="1.2"/>
<rect x="248.32" y="263.43" width="8.2" height="8.2" fill="#41ab5d" stroke="white" stroke-width="1.2"/>
<rect x="307.15" y="252.19" width="8.2" height="8.2" fill="#41ab5d" stroke="white" stroke-width="1.2"/>
<rect x="368.39" y="242.74" width="8.2" height="8.2" fill="#41ab5d" stroke="white" stroke-width="1.2"/>
<rect x="498.92" y="221.80" width="8.2" height="8.2" fill="#41ab5d" stroke="white" stroke-width="1.2"/>
<rect x="641.90" y="202.76" width="8.2" height="8.2" fill="#41ab5d" stroke="white" stroke-width="1.2"/>
<polyline points="152.00,286.97 162.83,288.59 195.80,290.21 252.42,298.07 311.25,310.49 372.49,322.02 503.02,344.78 646.00,363.80" fill="none" stroke="#b23a48" stroke-width="2.4" stroke-linejoin="round" stroke-linecap="round"/>
<polyline points="152.00,276.32 162.83,274.55 195.80,272.64 252.42,265.07 311.25,254.28 372.49,241.64 503.02,219.96 646.00,200.89" fill="none" stroke="#b23a48" stroke-width="2.1" stroke-linejoin="round" stroke-linecap="round" stroke-dasharray="6 5"/>
<circle cx="152.00" cy="286.97" r="4.2" fill="#b23a48" stroke="white" stroke-width="1.2"/>
<circle cx="162.83" cy="288.59" r="4.2" fill="#b23a48" stroke="white" stroke-width="1.2"/>
<circle cx="195.80" cy="290.21" r="4.2" fill="#b23a48" stroke="white" stroke-width="1.2"/>
<circle cx="252.42" cy="298.07" r="4.2" fill="#b23a48" stroke="white" stroke-width="1.2"/>
<circle cx="311.25" cy="310.49" r="4.2" fill="#b23a48" stroke="white" stroke-width="1.2"/>
<circle cx="372.49" cy="322.02" r="4.2" fill="#b23a48" stroke="white" stroke-width="1.2"/>
<circle cx="503.02" cy="344.78" r="4.2" fill="#b23a48" stroke="white" stroke-width="1.2"/>
<circle cx="646.00" cy="363.80" r="4.2" fill="#b23a48" stroke="white" stroke-width="1.2"/>
<rect x="147.90" y="272.22" width="8.2" height="8.2" fill="#b23a48" stroke="white" stroke-width="1.2"/>
<rect x="158.73" y="270.45" width="8.2" height="8.2" fill="#b23a48" stroke="white" stroke-width="1.2"/>
<rect x="191.70" y="268.54" width="8.2" height="8.2" fill="#b23a48" stroke="white" stroke-width="1.2"/>
<rect x="248.32" y="260.97" width="8.2" height="8.2" fill="#b23a48" stroke="white" stroke-width="1.2"/>
<rect x="307.15" y="250.18" width="8.2" height="8.2" fill="#b23a48" stroke="white" stroke-width="1.2"/>
<rect x="368.39" y="237.54" width="8.2" height="8.2" fill="#b23a48" stroke="white" stroke-width="1.2"/>
<rect x="498.92" y="215.86" width="8.2" height="8.2" fill="#b23a48" stroke="white" stroke-width="1.2"/>
<rect x="641.90" y="196.79" width="8.2" height="8.2" fill="#b23a48" stroke="white" stroke-width="1.2"/>
<polyline points="152.00,287.57 162.83,287.26 195.80,291.16 252.42,299.80 311.25,313.39 372.49,325.70 503.02,349.66 646.00,366.50" fill="none" stroke="#f0a202" stroke-width="2.4" stroke-linejoin="round" stroke-linecap="round"/>
<polyline points="152.00,276.29 162.83,275.78 195.80,272.06 252.42,263.90 311.25,250.74 372.49,238.95 503.02,215.53 646.00,199.07" fill="none" stroke="#f0a202" stroke-width="2.1" stroke-linejoin="round" stroke-linecap="round" stroke-dasharray="6 5"/>
<circle cx="152.00" cy="287.57" r="4.2" fill="#f0a202" stroke="white" stroke-width="1.2"/>
<circle cx="162.83" cy="287.26" r="4.2" fill="#f0a202" stroke="white" stroke-width="1.2"/>
<circle cx="195.80" cy="291.16" r="4.2" fill="#f0a202" stroke="white" stroke-width="1.2"/>
<circle cx="252.42" cy="299.80" r="4.2" fill="#f0a202" stroke="white" stroke-width="1.2"/>
<circle cx="311.25" cy="313.39" r="4.2" fill="#f0a202" stroke="white" stroke-width="1.2"/>
<circle cx="372.49" cy="325.70" r="4.2" fill="#f0a202" stroke="white" stroke-width="1.2"/>
<circle cx="503.02" cy="349.66" r="4.2" fill="#f0a202" stroke="white" stroke-width="1.2"/>
<circle cx="646.00" cy="366.50" r="4.2" fill="#f0a202" stroke="white" stroke-width="1.2"/>
<rect x="147.90" y="272.19" width="8.2" height="8.2" fill="#f0a202" stroke="white" stroke-width="1.2"/>
<rect x="158.73" y="271.68" width="8.2" height="8.2" fill="#f0a202" stroke="white" stroke-width="1.2"/>
<rect x="191.70" y="267.96" width="8.2" height="8.2" fill="#f0a202" stroke="white" stroke-width="1.2"/>
<rect x="248.32" y="259.80" width="8.2" height="8.2" fill="#f0a202" stroke="white" stroke-width="1.2"/>
<rect x="307.15" y="246.64" width="8.2" height="8.2" fill="#f0a202" stroke="white" stroke-width="1.2"/>
<rect x="368.39" y="234.85" width="8.2" height="8.2" fill="#f0a202" stroke="white" stroke-width="1.2"/>
<rect x="498.92" y="211.43" width="8.2" height="8.2" fill="#f0a202" stroke="white" stroke-width="1.2"/>
<rect x="641.90" y="194.97" width="8.2" height="8.2" fill="#f0a202" stroke="white" stroke-width="1.2"/>
<polyline points="152.00,287.36 162.83,288.23 195.80,292.69 252.42,306.71 311.25,322.79 372.49,338.21 503.02,362.89 646.00,369.66" fill="none" stroke="#6f4e37" stroke-width="2.4" stroke-linejoin="round" stroke-linecap="round"/>
<polyline points="152.00,276.35 162.83,275.92 195.80,269.85 252.42,257.05 311.25,242.25 372.49,226.17 503.02,202.63 646.00,196.10" fill="none" stroke="#6f4e37" stroke-width="2.1" stroke-linejoin="round" stroke-linecap="round" stroke-dasharray="6 5"/>
<circle cx="152.00" cy="287.36" r="4.2" fill="#6f4e37" stroke="white" stroke-width="1.2"/>
<circle cx="162.83" cy="288.23" r="4.2" fill="#6f4e37" stroke="white" stroke-width="1.2"/>
<circle cx="195.80" cy="292.69" r="4.2" fill="#6f4e37" stroke="white" stroke-width="1.2"/>
<circle cx="252.42" cy="306.71" r="4.2" fill="#6f4e37" stroke="white" stroke-width="1.2"/>
<circle cx="311.25" cy="322.79" r="4.2" fill="#6f4e37" stroke="white" stroke-width="1.2"/>
<circle cx="372.49" cy="338.21" r="4.2" fill="#6f4e37" stroke="white" stroke-width="1.2"/>
<circle cx="503.02" cy="362.89" r="4.2" fill="#6f4e37" stroke="white" stroke-width="1.2"/>
<circle cx="646.00" cy="369.66" r="4.2" fill="#6f4e37" stroke="white" stroke-width="1.2"/>
<rect x="147.90" y="272.25" width="8.2" height="8.2" fill="#6f4e37" stroke="white" stroke-width="1.2"/>
<rect x="158.73" y="271.82" width="8.2" height="8.2" fill="#6f4e37" stroke="white" stroke-width="1.2"/>
<rect x="191.70" y="265.75" width="8.2" height="8.2" fill="#6f4e37" stroke="white" stroke-width="1.2"/>
<rect x="248.32" y="252.95" width="8.2" height="8.2" fill="#6f4e37" stroke="white" stroke-width="1.2"/>
<rect x="307.15" y="238.15" width="8.2" height="8.2" fill="#6f4e37" stroke="white" stroke-width="1.2"/>
<rect x="368.39" y="222.07" width="8.2" height="8.2" fill="#6f4e37" stroke="white" stroke-width="1.2"/>
<rect x="498.92" y="198.53" width="8.2" height="8.2" fill="#6f4e37" stroke="white" stroke-width="1.2"/>
<rect x="641.90" y="192.00" width="8.2" height="8.2" fill="#6f4e37" stroke="white" stroke-width="1.2"/>
<polyline points="152.00,287.11 162.83,289.63 195.80,294.49 252.42,314.54 311.25,331.26 372.49,347.62 503.02,367.01 646.00,369.62" fill="none" stroke="#2c7fb8" stroke-width="2.4" stroke-linejoin="round" stroke-linecap="round"/>
<polyline points="152.00,275.62 162.83,273.64 195.80,268.76 252.42,248.51 311.25,232.97 372.49,217.36 503.02,198.52 646.00,195.96" fill="none" stroke="#2c7fb8" stroke-width="2.1" stroke-linejoin="round" stroke-linecap="round" stroke-dasharray="6 5"/>
<circle cx="152.00" cy="287.11" r="4.2" fill="#2c7fb8" stroke="white" stroke-width="1.2"/>
<circle cx="162.83" cy="289.63" r="4.2" fill="#2c7fb8" stroke="white" stroke-width="1.2"/>
<circle cx="195.80" cy="294.49" r="4.2" fill="#2c7fb8" stroke="white" stroke-width="1.2"/>
<circle cx="252.42" cy="314.54" r="4.2" fill="#2c7fb8" stroke="white" stroke-width="1.2"/>
<circle cx="311.25" cy="331.26" r="4.2" fill="#2c7fb8" stroke="white" stroke-width="1.2"/>
<circle cx="372.49" cy="347.62" r="4.2" fill="#2c7fb8" stroke="white" stroke-width="1.2"/>
<circle cx="503.02" cy="367.01" r="4.2" fill="#2c7fb8" stroke="white" stroke-width="1.2"/>
<circle cx="646.00" cy="369.62" r="4.2" fill="#2c7fb8" stroke="white" stroke-width="1.2"/>
<rect x="147.90" y="271.52" width="8.2" height="8.2" fill="#2c7fb8" stroke="white" stroke-width="1.2"/>
<rect x="158.73" y="269.54" width="8.2" height="8.2" fill="#2c7fb8" stroke="white" stroke-width="1.2"/>
<rect x="191.70" y="264.66" width="8.2" height="8.2" fill="#2c7fb8" stroke="white" stroke-width="1.2"/>
<rect x="248.32" y="244.41" width="8.2" height="8.2" fill="#2c7fb8" stroke="white" stroke-width="1.2"/>
<rect x="307.15" y="228.87" width="8.2" height="8.2" fill="#2c7fb8" stroke="white" stroke-width="1.2"/>
<rect x="368.39" y="213.26" width="8.2" height="8.2" fill="#2c7fb8" stroke="white" stroke-width="1.2"/>
<rect x="498.92" y="194.42" width="8.2" height="8.2" fill="#2c7fb8" stroke="white" stroke-width="1.2"/>
<rect x="641.90" y="191.86" width="8.2" height="8.2" fill="#2c7fb8" stroke="white" stroke-width="1.2"/>
<polyline points="152.00,288.02 162.83,289.30 195.80,297.89 252.42,320.51 311.25,339.36 372.49,355.17 503.02,368.38 646.00,369.83" fill="none" stroke="#41ab5d" stroke-width="2.4" stroke-linejoin="round" stroke-linecap="round"/>
<polyline points="152.00,274.37 162.83,273.54 195.80,265.82 252.42,243.27 311.25,225.71 372.49,209.41 503.02,196.37 646.00,195.57" fill="none" stroke="#41ab5d" stroke-width="2.1" stroke-linejoin="round" stroke-linecap="round" stroke-dasharray="6 5"/>
<circle cx="152.00" cy="288.02" r="4.2" fill="#41ab5d" stroke="white" stroke-width="1.2"/>
<circle cx="162.83" cy="289.30" r="4.2" fill="#41ab5d" stroke="white" stroke-width="1.2"/>
<circle cx="195.80" cy="297.89" r="4.2" fill="#41ab5d" stroke="white" stroke-width="1.2"/>
<circle cx="252.42" cy="320.51" r="4.2" fill="#41ab5d" stroke="white" stroke-width="1.2"/>
<circle cx="311.25" cy="339.36" r="4.2" fill="#41ab5d" stroke="white" stroke-width="1.2"/>
<circle cx="372.49" cy="355.17" r="4.2" fill="#41ab5d" stroke="white" stroke-width="1.2"/>
<circle cx="503.02" cy="368.38" r="4.2" fill="#41ab5d" stroke="white" stroke-width="1.2"/>
<circle cx="646.00" cy="369.83" r="4.2" fill="#41ab5d" stroke="white" stroke-width="1.2"/>
<rect x="147.90" y="270.27" width="8.2" height="8.2" fill="#41ab5d" stroke="white" stroke-width="1.2"/>
<rect x="158.73" y="269.44" width="8.2" height="8.2" fill="#41ab5d" stroke="white" stroke-width="1.2"/>
<rect x="191.70" y="261.72" width="8.2" height="8.2" fill="#41ab5d" stroke="white" stroke-width="1.2"/>
<rect x="248.32" y="239.17" width="8.2" height="8.2" fill="#41ab5d" stroke="white" stroke-width="1.2"/>
<rect x="307.15" y="221.61" width="8.2" height="8.2" fill="#41ab5d" stroke="white" stroke-width="1.2"/>
<rect x="368.39" y="205.31" width="8.2" height="8.2" fill="#41ab5d" stroke="white" stroke-width="1.2"/>
<rect x="498.92" y="192.27" width="8.2" height="8.2" fill="#41ab5d" stroke="white" stroke-width="1.2"/>
<rect x="641.90" y="191.47" width="8.2" height="8.2" fill="#41ab5d" stroke="white" stroke-width="1.2"/>
<rect x="708.00" y="92.00" width="166.00" height="222.00" fill="#ffffff" stroke="#d1d5db" stroke-width="1.0"/>
<polyline points="720.00,116.00 748.00,116.00" fill="none" stroke="#555" stroke-width="2.2" stroke-linejoin="round" stroke-linecap="round"/>
<circle cx="734.00" cy="116.00" r="3.8" fill="#555" stroke="white" stroke-width="1.2"/>
<text x="758.00" y="120.00" font-size="10" fill="#222" text-anchor="start" font-family="Arial, Helvetica, sans-serif" font-weight="normal">V2V route share</text>
<polyline points="720.00,138.00 748.00,138.00" fill="none" stroke="#555" stroke-width="2.0" stroke-linejoin="round" stroke-linecap="round" stroke-dasharray="6 5"/>
<rect x="730.00" y="134.00" width="8" height="8" fill="#555"/>
<text x="758.00" y="142.00" font-size="10" fill="#222" text-anchor="start" font-family="Arial, Helvetica, sans-serif" font-weight="normal">V2S route share</text>
<line x1="720" y1="166" x2="748" y2="166" stroke="#2c7fb8" stroke-width="4"/>
<text x="758.00" y="170.00" font-size="10" fill="#222" text-anchor="start" font-family="Arial, Helvetica, sans-serif" font-weight="normal">0% coupon</text>
<line x1="720" y1="184" x2="748" y2="184" stroke="#41ab5d" stroke-width="4"/>
<text x="758.00" y="188.00" font-size="10" fill="#222" text-anchor="start" font-family="Arial, Helvetica, sans-serif" font-weight="normal">4% coupon</text>
<line x1="720" y1="202" x2="748" y2="202" stroke="#41ab5d" stroke-width="4"/>
<text x="758.00" y="206.00" font-size="10" fill="#222" text-anchor="start" font-family="Arial, Helvetica, sans-serif" font-weight="normal">8% coupon</text>
<line x1="720" y1="220" x2="748" y2="220" stroke="#b23a48" stroke-width="4"/>
<text x="758.00" y="224.00" font-size="10" fill="#222" text-anchor="start" font-family="Arial, Helvetica, sans-serif" font-weight="normal">12% coupon</text>
<line x1="720" y1="238" x2="748" y2="238" stroke="#f0a202" stroke-width="4"/>
<text x="758.00" y="242.00" font-size="10" fill="#222" text-anchor="start" font-family="Arial, Helvetica, sans-serif" font-weight="normal">15% coupon</text>
<line x1="720" y1="256" x2="748" y2="256" stroke="#6f4e37" stroke-width="4"/>
<text x="758.00" y="260.00" font-size="10" fill="#222" text-anchor="start" font-family="Arial, Helvetica, sans-serif" font-weight="normal">25% coupon</text>
<line x1="720" y1="274" x2="748" y2="274" stroke="#2c7fb8" stroke-width="4"/>
<text x="758.00" y="278.00" font-size="10" fill="#222" text-anchor="start" font-family="Arial, Helvetica, sans-serif" font-weight="normal">35% coupon</text>
<line x1="720" y1="292" x2="748" y2="292" stroke="#41ab5d" stroke-width="4"/>
<text x="758.00" y="296.00" font-size="10" fill="#222" text-anchor="start" font-family="Arial, Helvetica, sans-serif" font-weight="normal">45% coupon</text>
</svg>